HIERARCHY
ROOT Hip
{
   OFFSET 0.00000 0.00000 0.00000
   CHANNELS 6 Xposition Yposition Zposition Zrotation Yrotation Xrotation
   JOINT Head
   {
      OFFSET 0.000000 17.817001 0.000000
      CHANNELS 3 Zrotation Yrotation Xrotation
      End Site
      {
         OFFSET 0.000000 10.615500 0.000000
      }
      JOINT LeftShoulder
      {
         OFFSET 5.890950 0.000000 0.000000
         CHANNELS 3 Zrotation Yrotation Xrotation
         JOINT LeftHand
         {
            OFFSET 0.000000 -8.608500 0.000000
            CHANNELS 3 Zrotation Yrotation Xrotation
            End Site
            {
               OFFSET 0.000000 -9.428249 0.000000
            }
         }
      }
      JOINT RightShoulder
      {
         OFFSET -6.278400 0.000000 0.000000
         CHANNELS 3 Zrotation Yrotation Xrotation
         JOINT RghtHand
         {
            OFFSET 0.000000 -10.314751 0.000000
            CHANNELS 3 Zrotation Yrotation Xrotation
            End Site
            {
               OFFSET 0.000000 -7.065600 0.000000
            }
         }
      }
   }
   JOINT LeftHip
   {
      OFFSET 6.233475 0.000000 0.000000
      CHANNELS 3 Zrotation Yrotation Xrotation
      JOINT LeftKnee
      {
         OFFSET 0.000000 -17.570998 0.000000
         CHANNELS 3 Zrotation Yrotation Xrotation
         JOINT LeftFoot
         {
            OFFSET 0.000000 -13.397250 0.000000
            CHANNELS 3 Zrotation Yrotation Xrotation
            End Site
            {
               OFFSET 0.000000 0.000000 8.730750
            }
         }
      }
   }
   JOINT RightHip
   {
      OFFSET -6.233475 0.000000 0.000000
      CHANNELS 3 Zrotation Yrotation Xrotation
      JOINT RightKnee
      {
         OFFSET 0.000000 -15.902250 0.000000
         CHANNELS 3 Zrotation Yrotation Xrotation
         JOINT RightFoot
         {
            OFFSET 0.000000 -13.638000 0.000000
            CHANNELS 3 Zrotation Yrotation Xrotation
            End Site
            {
               OFFSET 0.000000 0.000000 8.769749
            }
         }
      }
   }
}
MOTION
Frames: 17
Frame Time: 0.016670
8.051185 75.595158 3.192553 24.306350 26.406100 248.170798 -9.792692 1.484027 19.069543 7.407544 -71.068152 97.293449 66.502601 177.658521 135.387518 -54.322065 -6.523075 26.840903 -79.482686 2.908001 50.214659 -84.060552 -15.965444 88.211306 53.260292 -56.059744 -17.612514 15.040693 -54.183624 -6.755882 -106.621036 -34.244253 88.541354 8.818460 -35.438361 29.503818 -26.394950 -19.013937 48.950996
9.905349 75.440968 2.269420 21.679480 30.241124 248.531678 -10.625425 0.948187 19.504065 8.652614 -65.551252 97.320442 67.709045 179.514119 136.753487 -53.251956 -5.544737 26.226612 -78.396167 1.677535 49.849685 -83.166146 -14.419752 89.108219 48.681169 -57.446611 -18.434129 15.971492 -55.046240 -5.892483 -107.675733 -30.675629 88.027430 7.511942 -34.482920 28.300030 -26.030336 -19.211403 48.906566
11.763084 75.106210 1.326501 18.908334 33.884811 248.773822 -12.131852 0.283132 20.111415 10.258253 -61.230754 97.901049 68.031327 182.311983 139.794096 -52.297355 -4.580363 24.489519 -77.971104 1.293500 49.707996 -81.273671 -12.727357 90.292908 44.463288 -58.395932 -18.803823 17.157005 -55.405033 -4.394830 -108.436589 -26.997561 87.461713 6.910683 -33.081550 27.256459 -26.075892 -19.049737 48.141437
13.680520 74.565352 0.332784 16.068292 37.390409 249.414357 -12.431657 -1.685438 19.172269 11.109244 -55.453169 97.602734 70.773812 183.229032 143.024489 -54.154978 -2.543293 22.410954 -76.944690 0.122488 49.417549 -78.088282 -11.370473 91.070867 40.702627 -59.493857 -18.333589 18.116986 -55.873908 -3.187224 -108.173196 -24.182942 86.430006 5.755509 -31.503927 26.897121 -25.767684 -19.567370 48.227218
15.620683 73.813356 -0.686523 13.089476 41.395949 249.729010 -13.578080 -1.996029 18.446331 12.646796 -53.199640 97.431945 73.882238 183.722444 145.322329 -54.976244 -1.691923 21.412080 -75.112950 -2.007623 49.524462 -75.823508 -10.010517 92.127982 37.943951 -60.256789 -18.103927 18.385363 -56.238463 -2.866624 -107.841720 -21.127372 85.266449 4.656438 -30.535518 26.733337 -24.814916 -20.240171 49.459753
17.613076 72.824668 -1.716434 10.539037 46.211742 249.953423 -15.367299 1.324976 18.728816 13.934656 -58.200903 97.700959 73.130576 186.635780 149.060887 -54.743546 -2.722437 23.179225 -72.796170 -4.998147 51.122494 -74.399973 -8.407522 92.942660 35.890834 -61.173039 -18.109743 18.641746 -56.929572 -2.662019 -107.019010 -17.751728 83.205870 3.753765 -30.191724 26.842172 -23.019377 -21.098900 52.205082
19.631730 71.585888 -2.754669 8.163238 50.573316 251.264655 -16.006222 0.367915 15.698667 13.695218 -54.640448 97.443679 78.391283 185.701219 153.292121 -57.503909 -0.646399 23.473729 -70.514286 -7.779028 51.611860 -73.110741 -7.467522 94.267027 34.861460 -61.262938 -18.074608 19.323481 -57.015404 -1.583772 -104.654932 -15.724274 81.707060 2.993760 -29.719495 26.139752 -20.848838 -21.976822 55.628267
21.648812 70.089425 -3.832697 5.780559 55.227991 252.664516 -16.487711 1.434065 13.400029 14.147186 -52.858755 97.305880 82.171834 185.337224 156.084904 -58.863076 0.517805 25.527993 -68.307370 -10.379275 53.109973 -71.030839 -6.688896 95.656478 34.053400 -61.068947 -17.860846 21.645602 -56.984746 1.833700 -100.574925 -13.804106 79.775428 3.332843 -28.977136 25.175519 -19.404578 -23.236638 58.290310
23.633911 68.354601 -4.971227 4.466413 59.722792 255.463828 -17.665045 3.695589 11.599417 14.653360 -52.595592 96.999054 84.888234 185.240030 158.069934 -58.406484 0.375963 27.647648 -67.040083 -11.742166 55.137279 -71.026119 -5.879376 97.674587 34.997073 -59.479630 -18.848264 24.404348 -56.197902 6.118923 -94.095637 -11.964347 76.542167 4.744511 -29.078605 25.170996 -19.521613 -26.195719 59.610872
25.584361 66.421966 -6.207069 2.810933 63.907608 257.932586 -18.906085 5.831329 10.792559 13.704759 -54.024737 95.845190 86.118782 185.341623 160.044801 -57.449404 -1.039504 28.940488 -66.008984 -12.902525 57.501163 -68.919013 -5.673378 98.354936 34.807122 -59.697158 -18.430118 25.660829 -56.691649 7.861724 -83.668485 -9.311233 72.241907 5.561079 -30.553598 26.072581 -20.124471 -30.711761 61.203180
27.477738 64.263505 -7.511977 3.499594 67.958763 262.972392 -20.772572 6.734979 8.454490 15.829257 -50.869408 97.366915 89.026011 184.979554 160.802297 -55.795388 -1.384442 29.133929 -66.189109 -12.370522 58.199817 -64.462963 -6.030092 96.667544 32.423704 -62.795940 -16.654366 27.839636 -59.668034 10.173219 -74.387344 -5.948217 69.377599 9.931435 -34.036366 23.801731 -22.122725 -34.157380 60.176132
29.370842 61.790442 -8.889919 6.353188 72.098596 270.775500 -22.615687 7.917518 5.825633 16.442528 -50.827894 97.309370 90.822385 185.073661 162.680804 -55.435840 -1.693724 29.454351 -66.227379 -12.010768 59.392668 -63.261724 -6.529830 96.128779 31.235900 -64.497524 -17.012249 31.337051 -61.969528 14.468528 -63.544037 -0.920391 66.663022 16.138520 -39.983292 19.285657 -22.662627 -36.337897 60.585472
31.213777 59.051222 -10.250288 10.489049 76.105198 280.270802 -24.612640 9.328216 2.710682 16.698998 -53.951412 97.400963 91.198550 185.451507 165.114960 -54.945307 -2.275143 31.085075 -65.402394 -12.872669 61.063462 -61.656200 -7.978339 96.026162 29.028847 -66.903588 -17.685921 36.145757 -65.197530 20.371031 -52.219190 3.856217 65.961370 23.245726 -47.908364 10.670268 -22.576902 -37.476070 61.368881
30.812900 55.743336 -10.969080 4.585026 74.496211 278.819605 -21.027636 11.105709 -1.832811 14.696166 -56.670660 94.514122 96.941503 191.949134 165.859396 -50.189418 0.846954 34.647661 -64.455915 -20.137064 63.292542 -62.341718 -9.546169 97.461936 30.985693 -69.213387 -16.737676 34.391030 -68.174297 18.604961 -41.052784 3.450497 61.652511 26.054499 -68.530915 8.196481 -17.778793 -44.219324 58.458421
32.405579 52.671193 -12.381702 10.100935 78.251538 289.693567 -22.897514 12.489161 -6.235181 15.017803 -60.659750 95.392232 97.901616 192.044948 168.535328 -52.470206 2.911390 39.080365 -60.489207 -27.716459 66.576135 -61.051455 -11.875168 95.583873 29.455754 -71.060366 -18.031230 34.502287 -69.885608 18.574179 -32.183687 4.858827 59.479063 33.174519 -71.659503 -4.697898 -17.114082 -43.522648 59.056213
33.866360 49.353928 -13.773634 18.754067 82.085063 304.504040 -25.921405 12.930542 -9.821541 15.714631 -65.610599 96.570487 98.545355 192.164449 170.780766 -48.650546 5.633193 42.672385 -57.519147 -33.751475 68.655033 -61.677360 -15.079108 94.121311 29.696139 -71.711638 -20.168143 34.369737 -70.878635 18.336114 -25.546386 4.780229 57.286108 39.851692 -70.543669 -17.169482 -16.081697 -44.045025 60.892277
35.241208 45.785851 -15.147776 190.963743 95.475178 123.911926 -20.542245 6.782553 -13.336291 11.229287 -56.488854 94.010157 105.763430 192.315656 177.251045 -48.360458 14.848879 37.754537 -59.338266 -29.225778 67.047152 -62.908467 -18.568197 94.453259 33.046952 -68.629693 -21.594632 33.387419 -68.504093 17.440900 -19.229931 0.416550 54.220982 39.868357 -68.892403 -24.682553 -13.619561 -43.776301 64.178998
